<svg width="32" height="40" viewBox="0 0 32 40" fill="none" xmlns="http://www.w3.org/2000/svg">
<path d="M19.6836 0C20.1397 0 20.5613 0.0872864 20.9473 0.262695C21.3683 0.438135 21.7369 0.684212 22.0527 1L30.5791 9.52637C30.8948 9.8421 31.14 10.2109 31.3154 10.6318C31.4908 11.0177 31.5791 11.4385 31.5791 11.8945V36.6846C31.579 37.5966 31.2456 38.3862 30.5791 39.0527C29.9475 39.6843 29.175 40 28.2627 40H3.31543C2.4033 39.9999 1.61384 39.6842 0.947266 39.0527C0.31578 38.3862 8.69768e-05 37.5967 0 36.6846V3.31543C8.2763e-05 2.40333 0.315807 1.63149 0.947266 1C1.61385 0.333414 2.4033 7.97551e-05 3.31543 0H19.6836ZM22.7646 26.6074C22.1731 26.6074 21.6445 26.711 21.1797 26.917C20.7152 27.1229 20.3497 27.4095 20.083 27.7764C19.8189 28.1435 19.6878 28.5732 19.6904 29.0645C19.6879 29.6638 19.8852 30.1403 20.2812 30.4941C20.6774 30.848 21.2174 31.108 21.9014 31.2744L22.7842 31.4971C23.0799 31.5684 23.3299 31.6472 23.5332 31.7344C23.7391 31.8215 23.8953 31.9267 24.001 32.0508C24.1093 32.1749 24.1631 32.3285 24.1631 32.5107C24.1631 32.706 24.104 32.8789 23.9854 33.0293C23.8665 33.1798 23.698 33.2983 23.4814 33.3828C23.2677 33.4672 23.0157 33.5087 22.7256 33.5088C22.4298 33.5088 22.1638 33.4638 21.9287 33.374C21.6965 33.2816 21.51 33.1462 21.3701 32.9668C21.2328 32.7846 21.1552 32.5571 21.1367 32.2852H19.4766C19.4898 32.8688 19.631 33.3588 19.9004 33.7549C20.1724 34.1483 20.55 34.4458 21.0332 34.6465C21.5192 34.8472 22.0901 34.9473 22.7451 34.9473C23.4053 34.9473 23.9691 34.8484 24.4365 34.6504C24.9066 34.4497 25.2664 34.1685 25.5146 33.8066C25.7656 33.4422 25.8919 33.0112 25.8945 32.5146C25.8919 32.1766 25.8295 31.8767 25.708 31.6152C25.5892 31.3539 25.4216 31.1263 25.2051 30.9336C24.9886 30.7409 24.7322 30.5783 24.4365 30.4463C24.1408 30.3143 23.8157 30.2091 23.4619 30.1299L22.7334 29.9551C22.5566 29.9155 22.3901 29.8679 22.2344 29.8125C22.0786 29.7544 21.9411 29.6869 21.8223 29.6104C21.7034 29.5311 21.6097 29.4374 21.541 29.3291C21.4751 29.2209 21.4439 29.0944 21.4492 28.9492C21.4492 28.7749 21.4993 28.6188 21.5996 28.4814C21.7026 28.3441 21.8511 28.2377 22.0439 28.1611C22.2367 28.0819 22.473 28.042 22.7529 28.042C23.1649 28.042 23.4911 28.1307 23.7314 28.3076C23.9716 28.4845 24.1079 28.7324 24.1396 29.0518H25.7832C25.7752 28.5686 25.6463 28.1434 25.3955 27.7764C25.1447 27.4093 24.7933 27.123 24.3418 26.917C23.8928 26.711 23.3668 26.6074 22.7646 26.6074ZM5.68457 26.7188V34.832H11.167V33.418H7.39941V31.4805H10.8701V30.0664H7.39941V28.1328H11.1514V26.7188H5.68457ZM12.5146 34.832H14.2305V32.2021H15.6729C16.2958 32.2021 16.8264 32.087 17.2646 31.8574C17.7057 31.6276 18.043 31.3065 18.2754 30.8945C18.5077 30.4826 18.624 30.0073 18.624 29.4688C18.624 28.93 18.5091 28.454 18.2793 28.042C18.0522 27.6274 17.7221 27.3037 17.2891 27.0713C16.8559 26.8362 16.3312 26.7188 15.7158 26.7188H12.5146V34.832ZM15.3867 28.1211C15.7195 28.1211 15.9944 28.1785 16.2109 28.292C16.4274 28.4028 16.5887 28.5595 16.6943 28.7627C16.8026 28.9634 16.8574 29.1994 16.8574 29.4688C16.8574 29.7353 16.8026 29.9718 16.6943 30.1777C16.5887 30.381 16.4274 30.5411 16.2109 30.6572C15.9972 30.7706 15.7253 30.8271 15.3955 30.8271H14.2305V28.1211H15.3867ZM19.7363 10.1055C19.7364 10.5964 19.8945 10.9997 20.21 11.3154C20.5257 11.5961 20.912 11.7373 21.3682 11.7373H28.9473L19.7363 2.63184V10.1055Z" fill="black"/>
</svg>
